<!--?xml version="1.0" standalone="no"?-->
              <svg id="sw-js-blob-svg" viewBox="0 0 100 100" xmlns="http://www.w3.org/2000/svg" version="1.1">
                    <defs> 
                        <linearGradient id="sw-gradient" x1="0" x2="1" y1="1" y2="0">
                            <stop id="stop1" stop-color="rgba(248, 117, 55, 1)" offset="0%"></stop>
                            <stop id="stop2" stop-color="rgba(251, 168, 31, 1)" offset="100%"></stop>
                        </linearGradient>
                    </defs>
                <path fill="url(#sw-gradient)" d="M10.8,-11.9C17,-10.3,27.1,-11.2,30,-8.3C32.9,-5.4,28.6,1.2,24.7,6.4C20.7,11.5,17.1,15,13,20.6C9,26.1,4.5,33.7,-1.8,36.2C-8.1,38.7,-16.2,36,-19.8,30.3C-23.5,24.6,-22.7,15.9,-22.7,9C-22.7,2.2,-23.4,-2.8,-23.2,-8.8C-23,-14.8,-22,-21.9,-18,-24.2C-14,-26.4,-7,-24,-2.4,-20.7C2.3,-17.5,4.6,-13.5,10.8,-11.9Z" width="100%" height="100%" transform="translate(50 50)" stroke-width="0" style="transition: all 0.3s ease 0s;" stroke="url(#sw-gradient)"></path>
              </svg>