<!--?xml version="1.0" standalone="no"?-->
              <svg id="sw-js-blob-svg" viewBox="0 0 100 100" xmlns="http://www.w3.org/2000/svg" version="1.1">
                    <defs> 
                        <linearGradient id="sw-gradient" x1="0" x2="1" y1="1" y2="0">
                            <stop id="stop1" stop-color="rgba(224.335, 3.879, 191.041, 1)" offset="0%"></stop>
                            <stop id="stop2" stop-color="rgba(62.119, 67.571, 219.781, 1)" offset="100%"></stop>
                        </linearGradient>
                    </defs>
                <path fill="url(#sw-gradient)" d="M18.2,-26.8C24.5,-20.6,31,-16.4,29.5,-11.8C28,-7.2,18.5,-2.1,15.2,4C11.9,10.1,14.9,17.4,13.4,24.7C11.9,31.9,6,39.3,1.5,37.2C-3,35.1,-5.9,23.7,-13.3,18.3C-20.8,13,-32.7,13.7,-38.9,9.2C-45.1,4.7,-45.5,-5.1,-42.5,-13.6C-39.5,-22.2,-33,-29.4,-25.4,-35.2C-17.7,-40.9,-8.9,-45.2,-1.4,-43.2C6,-41.2,12,-33,18.2,-26.8Z" width="100%" height="100%" transform="translate(50 50)" stroke-width="0" style="transition: all 0.3s ease 0s;" stroke="url(#sw-gradient)"></path>
              </svg>